<mxfile host="app.diagrams.net" modified="2023-04-09T21:14:21.383Z" agent="Mozilla/5.0 (Windows NT 10.0; Win64; x64; rv:109.0) Gecko/20100101 Firefox/111.0" etag="4_XQ2vyvgtBUgSltrfBB" version="21.1.1" type="github">
  <diagram id="MK2uw4Dv01_g_HECxvXX" name="Página-1">
    <mxGraphModel dx="1434" dy="774" grid="1" gridSize="10" guides="1" tooltips="1" connect="1" arrows="1" fold="1" page="1" pageScale="1" pageWidth="827" pageHeight="1169" math="0" shadow="0">
      <root>
        <mxCell id="0" />
        <mxCell id="1" parent="0" />
        <mxCell id="iqzXNoHR8KkyIWJTpUeI-1" value="User" style="whiteSpace=wrap;html=1;align=center;" parent="1" vertex="1">
          <mxGeometry x="106" y="270" width="100" height="40" as="geometry" />
        </mxCell>
        <mxCell id="iqzXNoHR8KkyIWJTpUeI-2" value="&lt;div&gt;Admin&lt;/div&gt;" style="whiteSpace=wrap;html=1;align=center;" parent="1" vertex="1">
          <mxGeometry x="696" y="412" width="100" height="40" as="geometry" />
        </mxCell>
        <mxCell id="iqzXNoHR8KkyIWJTpUeI-3" value="&lt;div&gt;id&lt;/div&gt;" style="ellipse;whiteSpace=wrap;html=1;align=center;" parent="1" vertex="1">
          <mxGeometry x="35" y="210" width="50" height="40" as="geometry" />
        </mxCell>
        <mxCell id="iqzXNoHR8KkyIWJTpUeI-4" value="&lt;div&gt;nome&lt;/div&gt;" style="ellipse;whiteSpace=wrap;html=1;align=center;" parent="1" vertex="1">
          <mxGeometry x="81" y="180" width="50" height="40" as="geometry" />
        </mxCell>
        <mxCell id="iqzXNoHR8KkyIWJTpUeI-5" value="email" style="ellipse;whiteSpace=wrap;html=1;align=center;" parent="1" vertex="1">
          <mxGeometry x="131" y="160" width="50" height="40" as="geometry" />
        </mxCell>
        <mxCell id="iqzXNoHR8KkyIWJTpUeI-6" value="&lt;div&gt;telefone&lt;/div&gt;" style="ellipse;whiteSpace=wrap;html=1;align=center;" parent="1" vertex="1">
          <mxGeometry x="186" y="170" width="60" height="40" as="geometry" />
        </mxCell>
        <mxCell id="iqzXNoHR8KkyIWJTpUeI-7" value="Endereço" style="ellipse;whiteSpace=wrap;html=1;align=center;" parent="1" vertex="1">
          <mxGeometry x="236" y="223" width="60" height="40" as="geometry" />
        </mxCell>
        <mxCell id="iqzXNoHR8KkyIWJTpUeI-8" value="" style="endArrow=none;html=1;rounded=0;entryX=0.5;entryY=1;entryDx=0;entryDy=0;" parent="1" target="iqzXNoHR8KkyIWJTpUeI-5" edge="1">
          <mxGeometry width="50" height="50" relative="1" as="geometry">
            <mxPoint x="156" y="270" as="sourcePoint" />
            <mxPoint x="206" y="210" as="targetPoint" />
          </mxGeometry>
        </mxCell>
        <mxCell id="iqzXNoHR8KkyIWJTpUeI-9" value="" style="endArrow=none;html=1;rounded=0;entryX=0.333;entryY=0.95;entryDx=0;entryDy=0;entryPerimeter=0;exitX=0.66;exitY=0.05;exitDx=0;exitDy=0;exitPerimeter=0;" parent="1" source="iqzXNoHR8KkyIWJTpUeI-1" target="iqzXNoHR8KkyIWJTpUeI-6" edge="1">
          <mxGeometry width="50" height="50" relative="1" as="geometry">
            <mxPoint x="166" y="260" as="sourcePoint" />
            <mxPoint x="216" y="210" as="targetPoint" />
          </mxGeometry>
        </mxCell>
        <mxCell id="iqzXNoHR8KkyIWJTpUeI-10" value="" style="endArrow=none;html=1;rounded=0;exitX=1;exitY=0.25;exitDx=0;exitDy=0;" parent="1" source="iqzXNoHR8KkyIWJTpUeI-1" edge="1">
          <mxGeometry width="50" height="50" relative="1" as="geometry">
            <mxPoint x="206" y="300" as="sourcePoint" />
            <mxPoint x="260" y="260" as="targetPoint" />
          </mxGeometry>
        </mxCell>
        <mxCell id="iqzXNoHR8KkyIWJTpUeI-11" value="" style="endArrow=none;html=1;rounded=0;exitX=0.25;exitY=0;exitDx=0;exitDy=0;" parent="1" source="iqzXNoHR8KkyIWJTpUeI-1" edge="1">
          <mxGeometry width="50" height="50" relative="1" as="geometry">
            <mxPoint x="86" y="270" as="sourcePoint" />
            <mxPoint x="106" y="220" as="targetPoint" />
          </mxGeometry>
        </mxCell>
        <mxCell id="iqzXNoHR8KkyIWJTpUeI-12" value="" style="endArrow=none;html=1;rounded=0;" parent="1" source="iqzXNoHR8KkyIWJTpUeI-1" edge="1">
          <mxGeometry width="50" height="50" relative="1" as="geometry">
            <mxPoint x="31" y="290" as="sourcePoint" />
            <mxPoint x="81" y="240" as="targetPoint" />
          </mxGeometry>
        </mxCell>
        <mxCell id="iqzXNoHR8KkyIWJTpUeI-13" value="Encomenda" style="whiteSpace=wrap;html=1;align=center;" parent="1" vertex="1">
          <mxGeometry x="336" y="270" width="100" height="60" as="geometry" />
        </mxCell>
        <mxCell id="iqzXNoHR8KkyIWJTpUeI-14" value="Produto" style="whiteSpace=wrap;html=1;align=center;" parent="1" vertex="1">
          <mxGeometry x="526" y="270" width="100" height="40" as="geometry" />
        </mxCell>
        <mxCell id="iqzXNoHR8KkyIWJTpUeI-15" value="" style="edgeStyle=entityRelationEdgeStyle;fontSize=12;html=1;endArrow=ERoneToMany;rounded=0;entryX=0;entryY=0.5;entryDx=0;entryDy=0;" parent="1" target="iqzXNoHR8KkyIWJTpUeI-13" edge="1">
          <mxGeometry width="100" height="100" relative="1" as="geometry">
            <mxPoint x="206" y="290" as="sourcePoint" />
            <mxPoint x="306" y="190" as="targetPoint" />
          </mxGeometry>
        </mxCell>
        <mxCell id="iqzXNoHR8KkyIWJTpUeI-16" value="&lt;div&gt;id&lt;/div&gt;" style="ellipse;whiteSpace=wrap;html=1;align=center;" parent="1" vertex="1">
          <mxGeometry x="326" y="200" width="40" height="40" as="geometry" />
        </mxCell>
        <mxCell id="iqzXNoHR8KkyIWJTpUeI-17" value="id_produto" style="ellipse;whiteSpace=wrap;html=1;align=center;" parent="1" vertex="1">
          <mxGeometry x="356" y="170" width="70" height="40" as="geometry" />
        </mxCell>
        <mxCell id="iqzXNoHR8KkyIWJTpUeI-18" value="data" style="ellipse;whiteSpace=wrap;html=1;align=center;" parent="1" vertex="1">
          <mxGeometry x="416" y="210" width="40" height="40" as="geometry" />
        </mxCell>
        <mxCell id="iqzXNoHR8KkyIWJTpUeI-21" value="" style="endArrow=none;html=1;rounded=0;exitX=0.25;exitY=0;exitDx=0;exitDy=0;entryX=0.5;entryY=1;entryDx=0;entryDy=0;" parent="1" source="iqzXNoHR8KkyIWJTpUeI-13" target="iqzXNoHR8KkyIWJTpUeI-16" edge="1">
          <mxGeometry width="50" height="50" relative="1" as="geometry">
            <mxPoint x="306" y="290" as="sourcePoint" />
            <mxPoint x="356" y="240" as="targetPoint" />
          </mxGeometry>
        </mxCell>
        <mxCell id="iqzXNoHR8KkyIWJTpUeI-22" value="" style="endArrow=none;html=1;rounded=0;exitX=0.5;exitY=0;exitDx=0;exitDy=0;entryX=0.5;entryY=1;entryDx=0;entryDy=0;" parent="1" source="iqzXNoHR8KkyIWJTpUeI-13" target="iqzXNoHR8KkyIWJTpUeI-17" edge="1">
          <mxGeometry width="50" height="50" relative="1" as="geometry">
            <mxPoint x="356" y="260" as="sourcePoint" />
            <mxPoint x="406" y="210" as="targetPoint" />
          </mxGeometry>
        </mxCell>
        <mxCell id="iqzXNoHR8KkyIWJTpUeI-23" value="" style="endArrow=none;html=1;rounded=0;entryX=0.275;entryY=1.025;entryDx=0;entryDy=0;entryPerimeter=0;" parent="1" target="iqzXNoHR8KkyIWJTpUeI-18" edge="1">
          <mxGeometry width="50" height="50" relative="1" as="geometry">
            <mxPoint x="416" y="270" as="sourcePoint" />
            <mxPoint x="446" y="240" as="targetPoint" />
          </mxGeometry>
        </mxCell>
        <mxCell id="iqzXNoHR8KkyIWJTpUeI-25" value="" style="edgeStyle=entityRelationEdgeStyle;fontSize=12;html=1;endArrow=ERmany;startArrow=ERmany;rounded=0;exitX=1;exitY=0.5;exitDx=0;exitDy=0;" parent="1" source="iqzXNoHR8KkyIWJTpUeI-13" edge="1">
          <mxGeometry width="100" height="100" relative="1" as="geometry">
            <mxPoint x="426" y="390" as="sourcePoint" />
            <mxPoint x="526" y="290" as="targetPoint" />
          </mxGeometry>
        </mxCell>
        <mxCell id="iqzXNoHR8KkyIWJTpUeI-28" value="" style="edgeStyle=entityRelationEdgeStyle;fontSize=12;html=1;endArrow=ERoneToMany;rounded=0;exitX=0;exitY=0.5;exitDx=0;exitDy=0;entryX=1;entryY=0.5;entryDx=0;entryDy=0;" parent="1" source="iqzXNoHR8KkyIWJTpUeI-2" target="iqzXNoHR8KkyIWJTpUeI-14" edge="1">
          <mxGeometry width="100" height="100" relative="1" as="geometry">
            <mxPoint x="516" y="520" as="sourcePoint" />
            <mxPoint x="616" y="420" as="targetPoint" />
          </mxGeometry>
        </mxCell>
        <mxCell id="iqzXNoHR8KkyIWJTpUeI-29" value="" style="edgeStyle=entityRelationEdgeStyle;fontSize=12;html=1;endArrow=ERoneToMany;rounded=0;exitX=0;exitY=0.75;exitDx=0;exitDy=0;entryX=1;entryY=0.75;entryDx=0;entryDy=0;" parent="1" source="iqzXNoHR8KkyIWJTpUeI-2" target="iqzXNoHR8KkyIWJTpUeI-13" edge="1">
          <mxGeometry width="100" height="100" relative="1" as="geometry">
            <mxPoint x="516" y="520" as="sourcePoint" />
            <mxPoint x="616" y="420" as="targetPoint" />
          </mxGeometry>
        </mxCell>
        <mxCell id="iqzXNoHR8KkyIWJTpUeI-31" value="&lt;div&gt;Faz&lt;/div&gt;" style="text;html=1;align=center;verticalAlign=middle;resizable=0;points=[];autosize=1;strokeColor=none;fillColor=none;" parent="1" vertex="1">
          <mxGeometry x="256" y="270" width="40" height="30" as="geometry" />
        </mxCell>
        <mxCell id="iqzXNoHR8KkyIWJTpUeI-32" value="Gere" style="text;html=1;align=center;verticalAlign=middle;resizable=0;points=[];autosize=1;strokeColor=none;fillColor=none;" parent="1" vertex="1">
          <mxGeometry x="666" y="330" width="50" height="30" as="geometry" />
        </mxCell>
        <mxCell id="iqzXNoHR8KkyIWJTpUeI-33" value="Aprova" style="text;html=1;align=center;verticalAlign=middle;resizable=0;points=[];autosize=1;strokeColor=none;fillColor=none;" parent="1" vertex="1">
          <mxGeometry x="526" y="380" width="60" height="30" as="geometry" />
        </mxCell>
        <mxCell id="iqzXNoHR8KkyIWJTpUeI-34" value="id" style="ellipse;whiteSpace=wrap;html=1;align=center;" parent="1" vertex="1">
          <mxGeometry x="496" y="220" width="35" height="35" as="geometry" />
        </mxCell>
        <mxCell id="iqzXNoHR8KkyIWJTpUeI-35" value="nome" style="ellipse;whiteSpace=wrap;html=1;align=center;" parent="1" vertex="1">
          <mxGeometry x="536" y="200" width="50" height="40" as="geometry" />
        </mxCell>
        <mxCell id="iqzXNoHR8KkyIWJTpUeI-36" value="descricao" style="ellipse;whiteSpace=wrap;html=1;align=center;" parent="1" vertex="1">
          <mxGeometry x="596" y="200" width="60" height="40" as="geometry" />
        </mxCell>
        <mxCell id="iqzXNoHR8KkyIWJTpUeI-37" value="Validade" style="ellipse;whiteSpace=wrap;html=1;align=center;" parent="1" vertex="1">
          <mxGeometry x="661" y="210" width="60" height="40" as="geometry" />
        </mxCell>
        <mxCell id="iqzXNoHR8KkyIWJTpUeI-38" value="" style="endArrow=none;html=1;rounded=0;entryX=0.5;entryY=1;entryDx=0;entryDy=0;" parent="1" target="iqzXNoHR8KkyIWJTpUeI-36" edge="1">
          <mxGeometry width="50" height="50" relative="1" as="geometry">
            <mxPoint x="601" y="270" as="sourcePoint" />
            <mxPoint x="636" y="240" as="targetPoint" />
          </mxGeometry>
        </mxCell>
        <mxCell id="iqzXNoHR8KkyIWJTpUeI-39" value="" style="endArrow=none;html=1;rounded=0;entryX=0.5;entryY=1;entryDx=0;entryDy=0;" parent="1" target="iqzXNoHR8KkyIWJTpUeI-37" edge="1">
          <mxGeometry width="50" height="50" relative="1" as="geometry">
            <mxPoint x="626" y="270" as="sourcePoint" />
            <mxPoint x="676" y="220" as="targetPoint" />
          </mxGeometry>
        </mxCell>
        <mxCell id="iqzXNoHR8KkyIWJTpUeI-40" value="" style="endArrow=none;html=1;rounded=0;exitX=0.32;exitY=0;exitDx=0;exitDy=0;exitPerimeter=0;" parent="1" source="iqzXNoHR8KkyIWJTpUeI-14" edge="1">
          <mxGeometry width="50" height="50" relative="1" as="geometry">
            <mxPoint x="516" y="290" as="sourcePoint" />
            <mxPoint x="558" y="240" as="targetPoint" />
          </mxGeometry>
        </mxCell>
        <mxCell id="iqzXNoHR8KkyIWJTpUeI-41" value="" style="endArrow=none;html=1;rounded=0;exitX=0.12;exitY=-0.025;exitDx=0;exitDy=0;exitPerimeter=0;" parent="1" source="iqzXNoHR8KkyIWJTpUeI-14" edge="1">
          <mxGeometry width="50" height="50" relative="1" as="geometry">
            <mxPoint x="476" y="290" as="sourcePoint" />
            <mxPoint x="526" y="250" as="targetPoint" />
          </mxGeometry>
        </mxCell>
        <mxCell id="bmJV8fJsys9caIxofJ4X-2" value="&lt;div&gt;id&lt;/div&gt;" style="ellipse;whiteSpace=wrap;html=1;align=center;" vertex="1" parent="1">
          <mxGeometry x="640" y="466" width="50" height="40" as="geometry" />
        </mxCell>
        <mxCell id="bmJV8fJsys9caIxofJ4X-3" value="&lt;div&gt;nome&lt;/div&gt;" style="ellipse;whiteSpace=wrap;html=1;align=center;" vertex="1" parent="1">
          <mxGeometry x="81" y="180" width="50" height="40" as="geometry" />
        </mxCell>
        <mxCell id="bmJV8fJsys9caIxofJ4X-4" value="email" style="ellipse;whiteSpace=wrap;html=1;align=center;" vertex="1" parent="1">
          <mxGeometry x="663" y="506" width="50" height="40" as="geometry" />
        </mxCell>
        <mxCell id="bmJV8fJsys9caIxofJ4X-5" value="&lt;div&gt;telef&lt;/div&gt;" style="ellipse;whiteSpace=wrap;html=1;align=center;" vertex="1" parent="1">
          <mxGeometry x="743" y="516" width="42" height="40" as="geometry" />
        </mxCell>
        <mxCell id="bmJV8fJsys9caIxofJ4X-7" value="User" style="whiteSpace=wrap;html=1;align=center;" vertex="1" parent="1">
          <mxGeometry x="106" y="270" width="100" height="40" as="geometry" />
        </mxCell>
        <mxCell id="bmJV8fJsys9caIxofJ4X-10" value="" style="endArrow=none;html=1;rounded=0;exitX=0.25;exitY=0;exitDx=0;exitDy=0;" edge="1" source="bmJV8fJsys9caIxofJ4X-7" parent="1">
          <mxGeometry width="50" height="50" relative="1" as="geometry">
            <mxPoint x="86" y="270" as="sourcePoint" />
            <mxPoint x="106" y="220" as="targetPoint" />
          </mxGeometry>
        </mxCell>
        <mxCell id="bmJV8fJsys9caIxofJ4X-12" value="" style="endArrow=none;html=1;rounded=0;" edge="1" parent="1">
          <mxGeometry width="50" height="50" relative="1" as="geometry">
            <mxPoint x="318" y="503" as="sourcePoint" />
            <mxPoint x="273" y="473" as="targetPoint" />
          </mxGeometry>
        </mxCell>
        <mxCell id="bmJV8fJsys9caIxofJ4X-13" value="&lt;div&gt;id&lt;/div&gt;" style="ellipse;whiteSpace=wrap;html=1;align=center;" vertex="1" parent="1">
          <mxGeometry x="227" y="443" width="50" height="40" as="geometry" />
        </mxCell>
        <mxCell id="bmJV8fJsys9caIxofJ4X-14" value="&lt;div&gt;nome&lt;/div&gt;" style="ellipse;whiteSpace=wrap;html=1;align=center;" vertex="1" parent="1">
          <mxGeometry x="273" y="413" width="50" height="40" as="geometry" />
        </mxCell>
        <mxCell id="bmJV8fJsys9caIxofJ4X-15" value="email" style="ellipse;whiteSpace=wrap;html=1;align=center;" vertex="1" parent="1">
          <mxGeometry x="323" y="393" width="50" height="40" as="geometry" />
        </mxCell>
        <mxCell id="bmJV8fJsys9caIxofJ4X-16" value="&lt;div&gt;telefone&lt;/div&gt;" style="ellipse;whiteSpace=wrap;html=1;align=center;" vertex="1" parent="1">
          <mxGeometry x="378" y="403" width="60" height="40" as="geometry" />
        </mxCell>
        <mxCell id="bmJV8fJsys9caIxofJ4X-17" value="Endereço" style="ellipse;whiteSpace=wrap;html=1;align=center;" vertex="1" parent="1">
          <mxGeometry x="428" y="443" width="60" height="40" as="geometry" />
        </mxCell>
        <mxCell id="bmJV8fJsys9caIxofJ4X-18" value="Funcionario" style="whiteSpace=wrap;html=1;align=center;" vertex="1" parent="1">
          <mxGeometry x="298" y="503" width="100" height="40" as="geometry" />
        </mxCell>
        <mxCell id="bmJV8fJsys9caIxofJ4X-19" value="" style="endArrow=none;html=1;rounded=0;entryX=0.333;entryY=0.95;entryDx=0;entryDy=0;entryPerimeter=0;exitX=0.66;exitY=0.05;exitDx=0;exitDy=0;exitPerimeter=0;" edge="1" parent="1" source="bmJV8fJsys9caIxofJ4X-18" target="bmJV8fJsys9caIxofJ4X-16">
          <mxGeometry width="50" height="50" relative="1" as="geometry">
            <mxPoint x="358" y="493" as="sourcePoint" />
            <mxPoint x="408" y="443" as="targetPoint" />
          </mxGeometry>
        </mxCell>
        <mxCell id="bmJV8fJsys9caIxofJ4X-20" value="" style="endArrow=none;html=1;rounded=0;exitX=1;exitY=0.25;exitDx=0;exitDy=0;" edge="1" parent="1" source="bmJV8fJsys9caIxofJ4X-18">
          <mxGeometry width="50" height="50" relative="1" as="geometry">
            <mxPoint x="398" y="533" as="sourcePoint" />
            <mxPoint x="448" y="483" as="targetPoint" />
          </mxGeometry>
        </mxCell>
        <mxCell id="bmJV8fJsys9caIxofJ4X-21" value="" style="endArrow=none;html=1;rounded=0;exitX=0.25;exitY=0;exitDx=0;exitDy=0;" edge="1" parent="1" source="bmJV8fJsys9caIxofJ4X-18">
          <mxGeometry width="50" height="50" relative="1" as="geometry">
            <mxPoint x="278" y="503" as="sourcePoint" />
            <mxPoint x="298" y="453" as="targetPoint" />
          </mxGeometry>
        </mxCell>
        <mxCell id="bmJV8fJsys9caIxofJ4X-22" value="" style="endArrow=none;html=1;rounded=0;entryX=0.5;entryY=1;entryDx=0;entryDy=0;" edge="1" parent="1" target="bmJV8fJsys9caIxofJ4X-15">
          <mxGeometry width="50" height="50" relative="1" as="geometry">
            <mxPoint x="348" y="503" as="sourcePoint" />
            <mxPoint x="398" y="443" as="targetPoint" />
          </mxGeometry>
        </mxCell>
        <mxCell id="bmJV8fJsys9caIxofJ4X-23" value="pass" style="ellipse;whiteSpace=wrap;html=1;align=center;" vertex="1" parent="1">
          <mxGeometry x="786" y="514" width="38" height="40" as="geometry" />
        </mxCell>
        <mxCell id="bmJV8fJsys9caIxofJ4X-25" value="" style="edgeStyle=entityRelationEdgeStyle;fontSize=12;html=1;endArrow=ERoneToMany;rounded=0;exitX=0;exitY=0.25;exitDx=0;exitDy=0;" edge="1" parent="1" source="iqzXNoHR8KkyIWJTpUeI-2" target="bmJV8fJsys9caIxofJ4X-18">
          <mxGeometry width="100" height="100" relative="1" as="geometry">
            <mxPoint x="670" y="460" as="sourcePoint" />
            <mxPoint x="570" y="429" as="targetPoint" />
          </mxGeometry>
        </mxCell>
        <mxCell id="bmJV8fJsys9caIxofJ4X-27" value="Gerencia" style="text;html=1;align=center;verticalAlign=middle;resizable=0;points=[];autosize=1;strokeColor=none;fillColor=none;" vertex="1" parent="1">
          <mxGeometry x="516" y="483" width="70" height="30" as="geometry" />
        </mxCell>
        <mxCell id="bmJV8fJsys9caIxofJ4X-28" value="" style="endArrow=none;html=1;rounded=0;exitX=0.5;exitY=0;exitDx=0;exitDy=0;" edge="1" parent="1" source="bmJV8fJsys9caIxofJ4X-5" target="iqzXNoHR8KkyIWJTpUeI-2">
          <mxGeometry width="50" height="50" relative="1" as="geometry">
            <mxPoint x="750" y="510" as="sourcePoint" />
            <mxPoint x="786" y="466" as="targetPoint" />
          </mxGeometry>
        </mxCell>
        <mxCell id="bmJV8fJsys9caIxofJ4X-29" value="" style="endArrow=none;html=1;rounded=0;exitX=0.5;exitY=0;exitDx=0;exitDy=0;entryX=0.9;entryY=1.075;entryDx=0;entryDy=0;entryPerimeter=0;" edge="1" parent="1" source="bmJV8fJsys9caIxofJ4X-23" target="iqzXNoHR8KkyIWJTpUeI-2">
          <mxGeometry width="50" height="50" relative="1" as="geometry">
            <mxPoint x="799" y="518" as="sourcePoint" />
            <mxPoint x="797" y="452" as="targetPoint" />
          </mxGeometry>
        </mxCell>
        <mxCell id="bmJV8fJsys9caIxofJ4X-30" value="" style="endArrow=none;html=1;rounded=0;exitX=1;exitY=0;exitDx=0;exitDy=0;" edge="1" parent="1" source="bmJV8fJsys9caIxofJ4X-4" target="iqzXNoHR8KkyIWJTpUeI-2">
          <mxGeometry width="50" height="50" relative="1" as="geometry">
            <mxPoint x="722" y="516" as="sourcePoint" />
            <mxPoint x="720" y="452" as="targetPoint" />
          </mxGeometry>
        </mxCell>
        <mxCell id="bmJV8fJsys9caIxofJ4X-31" value="" style="endArrow=none;html=1;rounded=0;exitX=1.06;exitY=0.35;exitDx=0;exitDy=0;entryX=0.25;entryY=1;entryDx=0;entryDy=0;exitPerimeter=0;" edge="1" parent="1" source="bmJV8fJsys9caIxofJ4X-2" target="iqzXNoHR8KkyIWJTpUeI-2">
          <mxGeometry width="50" height="50" relative="1" as="geometry">
            <mxPoint x="690" y="506" as="sourcePoint" />
            <mxPoint x="720" y="460" as="targetPoint" />
          </mxGeometry>
        </mxCell>
        <mxCell id="bmJV8fJsys9caIxofJ4X-32" value="&lt;div&gt;nome&lt;/div&gt;" style="ellipse;whiteSpace=wrap;html=1;align=center;" vertex="1" parent="1">
          <mxGeometry x="694" y="542" width="50" height="40" as="geometry" />
        </mxCell>
        <mxCell id="bmJV8fJsys9caIxofJ4X-33" value="" style="endArrow=none;html=1;rounded=0;" edge="1" parent="1" target="iqzXNoHR8KkyIWJTpUeI-2">
          <mxGeometry width="50" height="50" relative="1" as="geometry">
            <mxPoint x="720" y="540" as="sourcePoint" />
            <mxPoint x="746" y="462" as="targetPoint" />
          </mxGeometry>
        </mxCell>
        <mxCell id="bmJV8fJsys9caIxofJ4X-34" value="contém" style="text;html=1;align=center;verticalAlign=middle;resizable=0;points=[];autosize=1;strokeColor=none;fillColor=none;" vertex="1" parent="1">
          <mxGeometry x="440" y="255" width="60" height="30" as="geometry" />
        </mxCell>
        <mxCell id="bmJV8fJsys9caIxofJ4X-36" value="User" style="swimlane;fontStyle=1;align=center;verticalAlign=top;childLayout=stackLayout;horizontal=1;startSize=26;horizontalStack=0;resizeParent=1;resizeParentMax=0;resizeLast=0;collapsible=1;marginBottom=0;whiteSpace=wrap;html=1;" vertex="1" parent="1">
          <mxGeometry x="850" y="120" width="160" height="280" as="geometry" />
        </mxCell>
        <mxCell id="bmJV8fJsys9caIxofJ4X-37" value="&lt;div&gt;- id: number&lt;/div&gt;&lt;div&gt;-nome: string&lt;/div&gt;&lt;div&gt;-email:string&lt;br&gt;&lt;/div&gt;&lt;div&gt;-telefone:number&lt;/div&gt;&lt;div&gt;-endereco::string&lt;br&gt;&lt;/div&gt;&lt;div&gt;-pass:string&lt;br&gt;&lt;/div&gt;" style="text;strokeColor=none;fillColor=none;align=left;verticalAlign=top;spacingLeft=4;spacingRight=4;overflow=hidden;rotatable=0;points=[[0,0.5],[1,0.5]];portConstraint=eastwest;whiteSpace=wrap;html=1;" vertex="1" parent="bmJV8fJsys9caIxofJ4X-36">
          <mxGeometry y="26" width="160" height="94" as="geometry" />
        </mxCell>
        <mxCell id="bmJV8fJsys9caIxofJ4X-38" value="" style="line;strokeWidth=1;fillColor=none;align=left;verticalAlign=middle;spacingTop=-1;spacingLeft=3;spacingRight=3;rotatable=0;labelPosition=right;points=[];portConstraint=eastwest;strokeColor=inherit;" vertex="1" parent="bmJV8fJsys9caIxofJ4X-36">
          <mxGeometry y="120" width="160" height="8" as="geometry" />
        </mxCell>
        <mxCell id="bmJV8fJsys9caIxofJ4X-39" value="&lt;div&gt;+ getters()&lt;/div&gt;&lt;div&gt;+setter(atributo)&lt;/div&gt;&lt;div&gt;+criarEncomenda()&lt;/div&gt;&lt;div&gt;+editarEncomenda(id)&lt;/div&gt;&lt;div&gt;+excluirEncomenda(id)&lt;/div&gt;&lt;div&gt;&lt;div&gt;+adicionarProduto(id)&lt;/div&gt;&lt;div&gt;+removerProduto(id)&lt;/div&gt;&lt;div&gt;&lt;div&gt;+finalizarEncomenda()&lt;/div&gt;&lt;div&gt;&lt;div&gt;+realizarPagamento()&lt;/div&gt;&lt;/div&gt;&lt;/div&gt;&lt;/div&gt;" style="text;strokeColor=none;fillColor=none;align=left;verticalAlign=top;spacingLeft=4;spacingRight=4;overflow=hidden;rotatable=0;points=[[0,0.5],[1,0.5]];portConstraint=eastwest;whiteSpace=wrap;html=1;" vertex="1" parent="bmJV8fJsys9caIxofJ4X-36">
          <mxGeometry y="128" width="160" height="152" as="geometry" />
        </mxCell>
        <mxCell id="bmJV8fJsys9caIxofJ4X-40" style="edgeStyle=orthogonalEdgeStyle;rounded=0;orthogonalLoop=1;jettySize=auto;html=1;exitX=0.5;exitY=0;exitDx=0;exitDy=0;entryX=0.5;entryY=1;entryDx=0;entryDy=0;" edge="1" parent="1" source="bmJV8fJsys9caIxofJ4X-41" target="bmJV8fJsys9caIxofJ4X-66">
          <mxGeometry relative="1" as="geometry" />
        </mxCell>
        <mxCell id="bmJV8fJsys9caIxofJ4X-41" value="Admin" style="swimlane;fontStyle=1;align=center;verticalAlign=top;childLayout=stackLayout;horizontal=1;startSize=26;horizontalStack=0;resizeParent=1;resizeParentMax=0;resizeLast=0;collapsible=1;marginBottom=0;whiteSpace=wrap;html=1;" vertex="1" parent="1">
          <mxGeometry x="1290" y="490" width="160" height="270" as="geometry" />
        </mxCell>
        <mxCell id="bmJV8fJsys9caIxofJ4X-42" value="&lt;div&gt;- id: number&lt;/div&gt;&lt;div&gt;-nome: string&lt;/div&gt;&lt;div&gt;-email:string&lt;br&gt;&lt;/div&gt;&lt;div&gt;-telefone:number&lt;/div&gt;&lt;div&gt;-pass:string&lt;br&gt;&lt;/div&gt;" style="text;strokeColor=none;fillColor=none;align=left;verticalAlign=top;spacingLeft=4;spacingRight=4;overflow=hidden;rotatable=0;points=[[0,0.5],[1,0.5]];portConstraint=eastwest;whiteSpace=wrap;html=1;" vertex="1" parent="bmJV8fJsys9caIxofJ4X-41">
          <mxGeometry y="26" width="160" height="84" as="geometry" />
        </mxCell>
        <mxCell id="bmJV8fJsys9caIxofJ4X-43" value="" style="line;strokeWidth=1;fillColor=none;align=left;verticalAlign=middle;spacingTop=-1;spacingLeft=3;spacingRight=3;rotatable=0;labelPosition=right;points=[];portConstraint=eastwest;strokeColor=inherit;" vertex="1" parent="bmJV8fJsys9caIxofJ4X-41">
          <mxGeometry y="110" width="160" height="8" as="geometry" />
        </mxCell>
        <mxCell id="bmJV8fJsys9caIxofJ4X-44" value="&lt;div&gt;+ getters()&lt;/div&gt;&lt;div&gt;+setter(atributo)&lt;/div&gt;&lt;div&gt;+criarProduto()&lt;/div&gt;&lt;div&gt;+editarProduto(id)&lt;/div&gt;&lt;div&gt;+excluirProduto(id)&lt;/div&gt;&lt;div&gt;+aprovarEncomenda(id)&lt;/div&gt;&lt;div&gt;+criarFuncionario()&lt;/div&gt;&lt;div&gt;+editarFuncionario(id)&lt;/div&gt;&lt;div&gt;+excluirFuncionario(id)&lt;/div&gt;" style="text;strokeColor=none;fillColor=none;align=left;verticalAlign=top;spacingLeft=4;spacingRight=4;overflow=hidden;rotatable=0;points=[[0,0.5],[1,0.5]];portConstraint=eastwest;whiteSpace=wrap;html=1;" vertex="1" parent="bmJV8fJsys9caIxofJ4X-41">
          <mxGeometry y="118" width="160" height="152" as="geometry" />
        </mxCell>
        <mxCell id="bmJV8fJsys9caIxofJ4X-45" value="Produto" style="swimlane;fontStyle=1;align=center;verticalAlign=top;childLayout=stackLayout;horizontal=1;startSize=26;horizontalStack=0;resizeParent=1;resizeParentMax=0;resizeLast=0;collapsible=1;marginBottom=0;whiteSpace=wrap;html=1;" vertex="1" parent="1">
          <mxGeometry x="1050" y="310" width="160" height="160" as="geometry" />
        </mxCell>
        <mxCell id="bmJV8fJsys9caIxofJ4X-46" value="&lt;div&gt;- id: number&lt;/div&gt;&lt;div&gt;-nome: string&lt;/div&gt;&lt;div&gt;-descricao:string&lt;/div&gt;&lt;div&gt;-quantidade:number&lt;br&gt;&lt;/div&gt;&lt;div&gt;-validade:date&lt;br&gt;&lt;/div&gt;" style="text;strokeColor=none;fillColor=none;align=left;verticalAlign=top;spacingLeft=4;spacingRight=4;overflow=hidden;rotatable=0;points=[[0,0.5],[1,0.5]];portConstraint=eastwest;whiteSpace=wrap;html=1;" vertex="1" parent="bmJV8fJsys9caIxofJ4X-45">
          <mxGeometry y="26" width="160" height="84" as="geometry" />
        </mxCell>
        <mxCell id="bmJV8fJsys9caIxofJ4X-47" value="" style="line;strokeWidth=1;fillColor=none;align=left;verticalAlign=middle;spacingTop=-1;spacingLeft=3;spacingRight=3;rotatable=0;labelPosition=right;points=[];portConstraint=eastwest;strokeColor=inherit;" vertex="1" parent="bmJV8fJsys9caIxofJ4X-45">
          <mxGeometry y="110" width="160" height="8" as="geometry" />
        </mxCell>
        <mxCell id="bmJV8fJsys9caIxofJ4X-48" value="&lt;div&gt;+ getters()&lt;/div&gt;&lt;div&gt;+setter(atributo)&lt;/div&gt;" style="text;strokeColor=none;fillColor=none;align=left;verticalAlign=top;spacingLeft=4;spacingRight=4;overflow=hidden;rotatable=0;points=[[0,0.5],[1,0.5]];portConstraint=eastwest;whiteSpace=wrap;html=1;" vertex="1" parent="bmJV8fJsys9caIxofJ4X-45">
          <mxGeometry y="118" width="160" height="42" as="geometry" />
        </mxCell>
        <mxCell id="bmJV8fJsys9caIxofJ4X-49" value="Encomenda" style="swimlane;fontStyle=1;align=center;verticalAlign=top;childLayout=stackLayout;horizontal=1;startSize=26;horizontalStack=0;resizeParent=1;resizeParentMax=0;resizeLast=0;collapsible=1;marginBottom=0;whiteSpace=wrap;html=1;" vertex="1" parent="1">
          <mxGeometry x="1260" y="100" width="160" height="140" as="geometry" />
        </mxCell>
        <mxCell id="bmJV8fJsys9caIxofJ4X-50" value="&lt;div&gt;- id: number&lt;/div&gt;&lt;div&gt;-id_produto:number&lt;/div&gt;&lt;div&gt;-id_user:number&lt;br&gt;&lt;/div&gt;" style="text;strokeColor=none;fillColor=none;align=left;verticalAlign=top;spacingLeft=4;spacingRight=4;overflow=hidden;rotatable=0;points=[[0,0.5],[1,0.5]];portConstraint=eastwest;whiteSpace=wrap;html=1;" vertex="1" parent="bmJV8fJsys9caIxofJ4X-49">
          <mxGeometry y="26" width="160" height="64" as="geometry" />
        </mxCell>
        <mxCell id="bmJV8fJsys9caIxofJ4X-51" value="" style="line;strokeWidth=1;fillColor=none;align=left;verticalAlign=middle;spacingTop=-1;spacingLeft=3;spacingRight=3;rotatable=0;labelPosition=right;points=[];portConstraint=eastwest;strokeColor=inherit;" vertex="1" parent="bmJV8fJsys9caIxofJ4X-49">
          <mxGeometry y="90" width="160" height="8" as="geometry" />
        </mxCell>
        <mxCell id="bmJV8fJsys9caIxofJ4X-52" value="&lt;div&gt;+ getters()&lt;/div&gt;&lt;div&gt;+setter(atributo)&lt;br&gt;&lt;/div&gt;" style="text;strokeColor=none;fillColor=none;align=left;verticalAlign=top;spacingLeft=4;spacingRight=4;overflow=hidden;rotatable=0;points=[[0,0.5],[1,0.5]];portConstraint=eastwest;whiteSpace=wrap;html=1;" vertex="1" parent="bmJV8fJsys9caIxofJ4X-49">
          <mxGeometry y="98" width="160" height="42" as="geometry" />
        </mxCell>
        <mxCell id="bmJV8fJsys9caIxofJ4X-53" value="Funcionario" style="swimlane;fontStyle=1;align=center;verticalAlign=top;childLayout=stackLayout;horizontal=1;startSize=26;horizontalStack=0;resizeParent=1;resizeParentMax=0;resizeLast=0;collapsible=1;marginBottom=0;whiteSpace=wrap;html=1;" vertex="1" parent="1">
          <mxGeometry x="1480" y="330" width="160" height="200" as="geometry" />
        </mxCell>
        <mxCell id="bmJV8fJsys9caIxofJ4X-54" value="&lt;div&gt;- id: number&lt;/div&gt;&lt;div&gt;-nome: string&lt;/div&gt;&lt;div&gt;-email:string&lt;br&gt;&lt;/div&gt;&lt;div&gt;-telefone:number&lt;/div&gt;&lt;div&gt;-endereco:string&lt;br&gt;&lt;/div&gt;&lt;div&gt;-salario:number&lt;/div&gt;&lt;div&gt;-pass:string&lt;br&gt;&lt;/div&gt;" style="text;strokeColor=none;fillColor=none;align=left;verticalAlign=top;spacingLeft=4;spacingRight=4;overflow=hidden;rotatable=0;points=[[0,0.5],[1,0.5]];portConstraint=eastwest;whiteSpace=wrap;html=1;" vertex="1" parent="bmJV8fJsys9caIxofJ4X-53">
          <mxGeometry y="26" width="160" height="114" as="geometry" />
        </mxCell>
        <mxCell id="bmJV8fJsys9caIxofJ4X-55" value="" style="line;strokeWidth=1;fillColor=none;align=left;verticalAlign=middle;spacingTop=-1;spacingLeft=3;spacingRight=3;rotatable=0;labelPosition=right;points=[];portConstraint=eastwest;strokeColor=inherit;" vertex="1" parent="bmJV8fJsys9caIxofJ4X-53">
          <mxGeometry y="140" width="160" height="8" as="geometry" />
        </mxCell>
        <mxCell id="bmJV8fJsys9caIxofJ4X-56" value="&lt;div&gt;+ getters()&lt;/div&gt;&lt;div&gt;+setter(atributo)&lt;/div&gt;&lt;div&gt;+verEncomenda(id)&lt;/div&gt;" style="text;strokeColor=none;fillColor=none;align=left;verticalAlign=top;spacingLeft=4;spacingRight=4;overflow=hidden;rotatable=0;points=[[0,0.5],[1,0.5]];portConstraint=eastwest;whiteSpace=wrap;html=1;" vertex="1" parent="bmJV8fJsys9caIxofJ4X-53">
          <mxGeometry y="148" width="160" height="52" as="geometry" />
        </mxCell>
        <mxCell id="bmJV8fJsys9caIxofJ4X-57" style="edgeStyle=orthogonalEdgeStyle;rounded=0;orthogonalLoop=1;jettySize=auto;html=1;exitX=1;exitY=0.5;exitDx=0;exitDy=0;" edge="1" parent="1" source="bmJV8fJsys9caIxofJ4X-59" target="bmJV8fJsys9caIxofJ4X-50">
          <mxGeometry relative="1" as="geometry" />
        </mxCell>
        <mxCell id="bmJV8fJsys9caIxofJ4X-58" style="edgeStyle=orthogonalEdgeStyle;rounded=0;orthogonalLoop=1;jettySize=auto;html=1;exitX=0.5;exitY=1;exitDx=0;exitDy=0;" edge="1" parent="1" source="bmJV8fJsys9caIxofJ4X-59" target="bmJV8fJsys9caIxofJ4X-45">
          <mxGeometry relative="1" as="geometry" />
        </mxCell>
        <mxCell id="bmJV8fJsys9caIxofJ4X-59" value="" style="shape=rhombus;perimeter=rhombusPerimeter;whiteSpace=wrap;html=1;align=center;" vertex="1" parent="1">
          <mxGeometry x="1070" y="150" width="120" height="60" as="geometry" />
        </mxCell>
        <mxCell id="bmJV8fJsys9caIxofJ4X-60" style="edgeStyle=orthogonalEdgeStyle;rounded=0;orthogonalLoop=1;jettySize=auto;html=1;exitX=1;exitY=0.5;exitDx=0;exitDy=0;entryX=0;entryY=0.5;entryDx=0;entryDy=0;" edge="1" parent="1" source="bmJV8fJsys9caIxofJ4X-37" target="bmJV8fJsys9caIxofJ4X-59">
          <mxGeometry relative="1" as="geometry" />
        </mxCell>
        <mxCell id="bmJV8fJsys9caIxofJ4X-61" value="CRIA" style="text;html=1;align=center;verticalAlign=middle;resizable=0;points=[];autosize=1;strokeColor=none;fillColor=none;" vertex="1" parent="1">
          <mxGeometry x="1184" y="130" width="50" height="30" as="geometry" />
        </mxCell>
        <mxCell id="bmJV8fJsys9caIxofJ4X-62" value="&lt;div&gt;ADICIONA&lt;/div&gt;" style="text;html=1;align=center;verticalAlign=middle;resizable=0;points=[];autosize=1;strokeColor=none;fillColor=none;" vertex="1" parent="1">
          <mxGeometry x="1050" y="240" width="80" height="30" as="geometry" />
        </mxCell>
        <mxCell id="bmJV8fJsys9caIxofJ4X-63" style="edgeStyle=orthogonalEdgeStyle;rounded=0;orthogonalLoop=1;jettySize=auto;html=1;exitX=1;exitY=0.5;exitDx=0;exitDy=0;" edge="1" parent="1" source="bmJV8fJsys9caIxofJ4X-66" target="bmJV8fJsys9caIxofJ4X-54">
          <mxGeometry relative="1" as="geometry" />
        </mxCell>
        <mxCell id="bmJV8fJsys9caIxofJ4X-64" style="edgeStyle=orthogonalEdgeStyle;rounded=0;orthogonalLoop=1;jettySize=auto;html=1;exitX=0;exitY=0.5;exitDx=0;exitDy=0;entryX=1;entryY=0.5;entryDx=0;entryDy=0;" edge="1" parent="1" source="bmJV8fJsys9caIxofJ4X-66" target="bmJV8fJsys9caIxofJ4X-46">
          <mxGeometry relative="1" as="geometry" />
        </mxCell>
        <mxCell id="bmJV8fJsys9caIxofJ4X-65" style="edgeStyle=orthogonalEdgeStyle;rounded=0;orthogonalLoop=1;jettySize=auto;html=1;exitX=0.5;exitY=0;exitDx=0;exitDy=0;entryX=0.581;entryY=1.024;entryDx=0;entryDy=0;entryPerimeter=0;" edge="1" parent="1" source="bmJV8fJsys9caIxofJ4X-66" target="bmJV8fJsys9caIxofJ4X-52">
          <mxGeometry relative="1" as="geometry" />
        </mxCell>
        <mxCell id="bmJV8fJsys9caIxofJ4X-66" value="" style="shape=rhombus;perimeter=rhombusPerimeter;whiteSpace=wrap;html=1;align=center;" vertex="1" parent="1">
          <mxGeometry x="1300" y="360" width="120" height="60" as="geometry" />
        </mxCell>
        <mxCell id="bmJV8fJsys9caIxofJ4X-67" value="GERENCIA" style="text;html=1;align=center;verticalAlign=middle;resizable=0;points=[];autosize=1;strokeColor=none;fillColor=none;" vertex="1" parent="1">
          <mxGeometry x="1385" y="345" width="90" height="30" as="geometry" />
        </mxCell>
        <mxCell id="bmJV8fJsys9caIxofJ4X-68" value="GERENCIA" style="text;html=1;align=center;verticalAlign=middle;resizable=0;points=[];autosize=1;strokeColor=none;fillColor=none;" vertex="1" parent="1">
          <mxGeometry x="1225" y="345" width="90" height="30" as="geometry" />
        </mxCell>
        <mxCell id="bmJV8fJsys9caIxofJ4X-69" value="APROVA" style="text;html=1;align=center;verticalAlign=middle;resizable=0;points=[];autosize=1;strokeColor=none;fillColor=none;" vertex="1" parent="1">
          <mxGeometry x="1275" y="285" width="70" height="30" as="geometry" />
        </mxCell>
        <mxCell id="bmJV8fJsys9caIxofJ4X-70" value="User" style="shape=umlActor;verticalLabelPosition=bottom;verticalAlign=top;html=1;" vertex="1" parent="1">
          <mxGeometry x="1720" y="230" width="30" height="60" as="geometry" />
        </mxCell>
        <mxCell id="bmJV8fJsys9caIxofJ4X-71" value="&lt;div&gt;Admin&lt;/div&gt;" style="shape=umlActor;verticalLabelPosition=bottom;verticalAlign=top;html=1;" vertex="1" parent="1">
          <mxGeometry x="2330" y="340" width="30" height="60" as="geometry" />
        </mxCell>
        <mxCell id="bmJV8fJsys9caIxofJ4X-72" value="&lt;div&gt;Funcionario&lt;/div&gt;" style="shape=umlActor;verticalLabelPosition=bottom;verticalAlign=top;html=1;" vertex="1" parent="1">
          <mxGeometry x="2320" y="80" width="30" height="60" as="geometry" />
        </mxCell>
        <mxCell id="bmJV8fJsys9caIxofJ4X-73" value="" style="rounded=0;whiteSpace=wrap;html=1;" vertex="1" parent="1">
          <mxGeometry x="1850" y="60" width="400" height="480" as="geometry" />
        </mxCell>
        <mxCell id="bmJV8fJsys9caIxofJ4X-74" value="&lt;div&gt;Adicionar Produtos&lt;/div&gt;&lt;div&gt;a encomendar&lt;br&gt;&lt;/div&gt;" style="ellipse;whiteSpace=wrap;html=1;" vertex="1" parent="1">
          <mxGeometry x="1870" y="220" width="120" height="80" as="geometry" />
        </mxCell>
        <mxCell id="bmJV8fJsys9caIxofJ4X-75" value="Ver Encomenda" style="ellipse;whiteSpace=wrap;html=1;" vertex="1" parent="1">
          <mxGeometry x="2110" y="70" width="96" height="60" as="geometry" />
        </mxCell>
        <mxCell id="bmJV8fJsys9caIxofJ4X-76" value="Aprovar/Reprovar Encomenda" style="ellipse;whiteSpace=wrap;html=1;" vertex="1" parent="1">
          <mxGeometry x="2140" y="440" width="100" height="80" as="geometry" />
        </mxCell>
        <mxCell id="bmJV8fJsys9caIxofJ4X-77" value="Navegar Pelo Catálogo" style="ellipse;whiteSpace=wrap;html=1;" vertex="1" parent="1">
          <mxGeometry x="1870" y="110" width="120" height="80" as="geometry" />
        </mxCell>
        <mxCell id="bmJV8fJsys9caIxofJ4X-78" value="Finalizar Encomenda" style="ellipse;whiteSpace=wrap;html=1;" vertex="1" parent="1">
          <mxGeometry x="1870" y="340" width="100" height="80" as="geometry" />
        </mxCell>
        <mxCell id="bmJV8fJsys9caIxofJ4X-79" value="Preencher dados do pagamento" style="ellipse;whiteSpace=wrap;html=1;" vertex="1" parent="1">
          <mxGeometry x="1995" y="240" width="110" height="70" as="geometry" />
        </mxCell>
        <mxCell id="bmJV8fJsys9caIxofJ4X-80" value="Notificar Usuario" style="ellipse;whiteSpace=wrap;html=1;" vertex="1" parent="1">
          <mxGeometry x="2138" y="310" width="90" height="60" as="geometry" />
        </mxCell>
        <mxCell id="bmJV8fJsys9caIxofJ4X-81" value="Gerenciar Produtos" style="ellipse;whiteSpace=wrap;html=1;" vertex="1" parent="1">
          <mxGeometry x="2138" y="220" width="100" height="70" as="geometry" />
        </mxCell>
        <mxCell id="bmJV8fJsys9caIxofJ4X-82" value="Gerenciar Funcionarios" style="ellipse;whiteSpace=wrap;html=1;" vertex="1" parent="1">
          <mxGeometry x="2140" y="377" width="90" height="60" as="geometry" />
        </mxCell>
        <mxCell id="bmJV8fJsys9caIxofJ4X-83" value="" style="endArrow=classic;html=1;rounded=0;" edge="1" parent="1" target="bmJV8fJsys9caIxofJ4X-75">
          <mxGeometry width="50" height="50" relative="1" as="geometry">
            <mxPoint x="2310" y="110" as="sourcePoint" />
            <mxPoint x="2320" y="85" as="targetPoint" />
          </mxGeometry>
        </mxCell>
        <mxCell id="bmJV8fJsys9caIxofJ4X-84" value="" style="endArrow=classic;html=1;rounded=0;" edge="1" parent="1" target="bmJV8fJsys9caIxofJ4X-78">
          <mxGeometry width="50" height="50" relative="1" as="geometry">
            <mxPoint x="1760" y="280" as="sourcePoint" />
            <mxPoint x="1810" y="230" as="targetPoint" />
          </mxGeometry>
        </mxCell>
        <mxCell id="bmJV8fJsys9caIxofJ4X-85" value="" style="endArrow=classic;html=1;rounded=0;" edge="1" parent="1">
          <mxGeometry width="50" height="50" relative="1" as="geometry">
            <mxPoint x="1760" y="270" as="sourcePoint" />
            <mxPoint x="1870" y="260" as="targetPoint" />
          </mxGeometry>
        </mxCell>
        <mxCell id="bmJV8fJsys9caIxofJ4X-86" value="" style="endArrow=classic;html=1;rounded=0;" edge="1" parent="1" target="bmJV8fJsys9caIxofJ4X-77">
          <mxGeometry width="50" height="50" relative="1" as="geometry">
            <mxPoint x="1757" y="260" as="sourcePoint" />
            <mxPoint x="1867" y="250" as="targetPoint" />
          </mxGeometry>
        </mxCell>
        <mxCell id="bmJV8fJsys9caIxofJ4X-87" value="" style="endArrow=classic;html=1;rounded=0;" edge="1" parent="1" target="bmJV8fJsys9caIxofJ4X-81">
          <mxGeometry width="50" height="50" relative="1" as="geometry">
            <mxPoint x="2320" y="350" as="sourcePoint" />
            <mxPoint x="2350" y="320" as="targetPoint" />
          </mxGeometry>
        </mxCell>
        <mxCell id="bmJV8fJsys9caIxofJ4X-88" value="" style="endArrow=classic;html=1;rounded=0;" edge="1" parent="1" source="bmJV8fJsys9caIxofJ4X-71" target="bmJV8fJsys9caIxofJ4X-80">
          <mxGeometry width="50" height="50" relative="1" as="geometry">
            <mxPoint x="2060" y="400" as="sourcePoint" />
            <mxPoint x="2110" y="350" as="targetPoint" />
          </mxGeometry>
        </mxCell>
        <mxCell id="bmJV8fJsys9caIxofJ4X-89" value="" style="endArrow=classic;html=1;rounded=0;" edge="1" parent="1" source="bmJV8fJsys9caIxofJ4X-71" target="bmJV8fJsys9caIxofJ4X-82">
          <mxGeometry width="50" height="50" relative="1" as="geometry">
            <mxPoint x="2060" y="400" as="sourcePoint" />
            <mxPoint x="2120" y="350" as="targetPoint" />
          </mxGeometry>
        </mxCell>
        <mxCell id="bmJV8fJsys9caIxofJ4X-90" value="" style="endArrow=classic;html=1;rounded=0;" edge="1" parent="1" source="bmJV8fJsys9caIxofJ4X-71" target="bmJV8fJsys9caIxofJ4X-76">
          <mxGeometry width="50" height="50" relative="1" as="geometry">
            <mxPoint x="2060" y="400" as="sourcePoint" />
            <mxPoint x="2110" y="350" as="targetPoint" />
          </mxGeometry>
        </mxCell>
        <mxCell id="bmJV8fJsys9caIxofJ4X-91" value="include" style="endArrow=open;endSize=12;dashed=1;html=1;rounded=0;" edge="1" parent="1" source="bmJV8fJsys9caIxofJ4X-78" target="bmJV8fJsys9caIxofJ4X-79">
          <mxGeometry width="160" relative="1" as="geometry">
            <mxPoint x="2000" y="370" as="sourcePoint" />
            <mxPoint x="2160" y="370" as="targetPoint" />
          </mxGeometry>
        </mxCell>
        <mxCell id="bmJV8fJsys9caIxofJ4X-92" value="Caso de Uso do Sistema" style="text;html=1;align=center;verticalAlign=middle;resizable=0;points=[];autosize=1;strokeColor=none;fillColor=none;" vertex="1" parent="1">
          <mxGeometry x="1950" y="70" width="160" height="30" as="geometry" />
        </mxCell>
      </root>
    </mxGraphModel>
  </diagram>
</mxfile>
